<?xml version="1.0" standalone="no"?>
<!DOCTYPE svg PUBLIC "-//W3C//DTD SVG 20010904//EN"
 "http://www.w3.org/TR/2001/REC-SVG-20010904/DTD/svg10.dtd">
<svg version="1.0" xmlns="http://www.w3.org/2000/svg"
 width="1920.000000pt" height="1080.000000pt" viewBox="0 0 1920.000000 1080.000000"
 preserveAspectRatio="xMidYMid meet">

<g transform="translate(0.000000,1080.000000) scale(0.100000,-0.100000)"
fill="#000000" stroke="none">
<path d="M9335 9799 c-682 -40 -1386 -269 -1975 -643 -605 -384 -1118 -929
-1471 -1561 -653 -1171 -746 -2592 -253 -3851 58 -149 200 -444 284 -589 205
-357 446 -664 763 -971 585 -569 1337 -962 2127 -1113 286 -54 415 -65 795
-65 288 -1 386 3 487 17 508 69 924 193 1345 401 226 112 413 222 588 347
1032 736 1689 1865 1831 3145 8 76 18 254 21 394 12 544 -60 1022 -232 1535
-85 256 -217 551 -353 790 -71 126 -262 409 -356 529 -620 792 -1503 1347
-2465 1550 -387 82 -739 108 -1136 85z"/>
</g>
</svg>
